<svg xmlns="http://www.w3.org/2000/svg" width="20" height="20" viewBox="0 0 20 20" fill="none">
  <path d="M16.2533 7.50033C18.3204 7.50033 20.0015 5.81833 20.0015 3.75017C20.0015 1.682 18.3204 0 16.2533 0C14.1862 0 12.5051 1.682 12.5051 3.75017C12.5051 4.02573 12.537 4.29388 12.5939 4.5533L6.67867 7.66711C5.99093 6.80528 4.93461 6.25029 3.74963 6.25029C1.68257 6.25029 0.00146484 7.93229 0.00146484 10.0005C0.00146484 12.0686 1.68257 13.7506 3.74963 13.7506C4.93783 13.7506 5.99597 13.1931 6.68326 12.3274L12.1759 15.2187C12.1198 15.4843 12.0885 15.7593 12.0885 16.0413C12.0885 18.2239 13.8633 20 16.0448 20C18.2263 20 20.001 18.2237 20.001 16.0413C20.001 13.8588 18.2263 12.0829 16.0448 12.0829C14.816 12.0829 13.7159 12.6466 12.99 13.5287L7.44266 10.6086C7.47511 10.4098 7.49644 10.2073 7.49644 9.9992C7.49644 9.78856 7.47452 9.58295 7.44148 9.38168L13.4428 6.22282C14.131 7.00462 15.1346 7.50033 16.2533 7.50033ZM16.0453 13.5287C17.4921 13.5287 18.4916 14.5 18.4916 16.0418C18.4916 17.5 17.4921 18.5 16.0453 18.5C14.4937 18.5 13.4943 17.5837 13.4943 16.0418C13.4943 14.5 14.5984 13.5287 16.0453 13.5287ZM3.74951 12.3274C2.50013 12.3274 1.50066 11.5008 1.50066 10.0004C1.50066 8.5 2.50013 7.66711 3.74951 7.66711C4.9988 7.66711 5.99827 8.5 5.99827 10.0004C5.99827 11.5008 4.9988 12.3274 3.74951 12.3274ZM16.2531 1.5C17.5128 1.5 18.4916 2.34809 18.4916 3.75001C18.4916 5 17.6507 6 16.2531 6C14.9935 6 13.994 5 13.994 3.75001C13.994 2.43389 14.9935 1.5 16.2531 1.5Z" fill="#FF4401"/>
</svg>